<svg width="350" height="38" viewBox="0 0 350 38" xmlns="http://www.w3.org/2000/svg"><title>logo</title><g fill="none" fill-rule="evenodd"><path d="M92.224 10.336V28h-2.952v-1.944a3.893 3.893 0 0 1-1.584 1.572c-.688.376-1.472.564-2.352.564-1.04 0-1.968-.264-2.784-.792-.816-.528-1.452-1.276-1.908-2.244-.456-.968-.684-2.076-.684-3.324 0-1.248.224-2.344.672-3.288.448-.944 1.08-1.676 1.896-2.196.816-.52 1.752-.78 2.808-.78.864 0 1.636.18 2.316.54a3.8 3.8 0 0 1 1.572 1.524v-7.296h3zM86.128 25.84c.992 0 1.764-.344 2.316-1.032.552-.688.828-1.664.828-2.928s-.272-2.24-.816-2.928c-.544-.688-1.312-1.032-2.304-1.032-1.008 0-1.788.34-2.34 1.02-.552.68-.828 1.644-.828 2.892 0 1.264.276 2.248.828 2.952.552.704 1.324 1.056 2.316 1.056zm19.968-3.744h-8.352c.064 1.296.388 2.252.972 2.868.584.616 1.452.924 2.604.924 1.328 0 2.56-.432 3.696-1.296l.864 2.064c-.576.464-1.284.836-2.124 1.116-.84.28-1.692.42-2.556.42-1.984 0-3.544-.56-4.68-1.68-1.136-1.12-1.704-2.656-1.704-4.608 0-1.232.248-2.328.744-3.288a5.493 5.493 0 0 1 2.088-2.244c.896-.536 1.912-.804 3.048-.804 1.664 0 2.98.54 3.948 1.62s1.452 2.564 1.452 4.452v.456zm-5.328-4.368c-.8 0-1.452.236-1.956.708s-.828 1.156-.972 2.052h5.64c-.096-.912-.372-1.6-.828-2.064-.456-.464-1.084-.696-1.884-.696zm22.176-2.16c1.376 0 2.4.412 3.072 1.236.672.824 1.008 2.076 1.008 3.756V28h-3v-7.344c0-.96-.156-1.652-.468-2.076-.312-.424-.828-.636-1.548-.636-.832 0-1.484.292-1.956.876-.472.584-.708 1.388-.708 2.412V28h-3v-7.344c0-.944-.164-1.632-.492-2.064-.328-.432-.844-.648-1.548-.648-.832 0-1.488.292-1.968.876-.48.584-.72 1.388-.72 2.412V28h-2.976v-8.688c0-1.28-.064-2.424-.192-3.432h2.808l.216 1.92c.352-.72.86-1.272 1.524-1.656.664-.384 1.428-.576 2.292-.576 1.856 0 3.064.768 3.624 2.304a4.183 4.183 0 0 1 1.644-1.692c.712-.408 1.508-.612 2.388-.612zm18.864.312V28h-2.952v-1.944a3.893 3.893 0 0 1-1.584 1.572c-.688.376-1.472.564-2.352.564-1.056 0-1.992-.256-2.808-.768-.816-.512-1.448-1.24-1.896-2.184-.448-.944-.672-2.04-.672-3.288 0-1.248.228-2.356.684-3.324.456-.968 1.092-1.72 1.908-2.256.816-.536 1.744-.804 2.784-.804.88 0 1.664.188 2.352.564.688.376 1.216.9 1.584 1.572V15.88h2.952zm-6.072 9.96c.992 0 1.76-.344 2.304-1.032.544-.688.816-1.656.816-2.904 0-1.28-.272-2.264-.816-2.952-.544-.688-1.32-1.032-2.328-1.032-.992 0-1.764.356-2.316 1.068-.552.712-.828 1.7-.828 2.964 0 1.248.276 2.208.828 2.88.552.672 1.332 1.008 2.34 1.008zM151.6 15.592c.464 0 .864.064 1.2.192l-.024 2.736a4.171 4.171 0 0 0-1.584-.312c-1.024 0-1.804.296-2.34.888-.536.592-.804 1.376-.804 2.352V28h-2.976v-8.688c0-1.28-.064-2.424-.192-3.432h2.808l.24 2.136c.304-.784.784-1.384 1.44-1.8.656-.416 1.4-.624 2.232-.624zm8.136 12.6c-1.264 0-2.36-.256-3.288-.768a5.224 5.224 0 0 1-2.136-2.172c-.496-.936-.744-2.036-.744-3.3 0-1.264.26-2.376.78-3.336a5.571 5.571 0 0 1 2.208-2.244c.952-.536 2.052-.804 3.3-.804.864 0 1.7.136 2.508.408.808.272 1.452.648 1.932 1.128l-.84 2.112a5.826 5.826 0 0 0-1.632-.948 4.83 4.83 0 0 0-1.704-.324c-1.088 0-1.936.34-2.544 1.02-.608.68-.912 1.66-.912 2.94s.3 2.256.9 2.928c.6.672 1.452 1.008 2.556 1.008.56 0 1.128-.112 1.704-.336a6.073 6.073 0 0 0 1.632-.96l.84 2.112c-.512.48-1.176.856-1.992 1.128a8.067 8.067 0 0 1-2.568.408zm13.512-12.624c2.896 0 4.344 1.664 4.344 4.992V28h-3v-7.296c0-.96-.184-1.66-.552-2.1-.368-.44-.936-.66-1.704-.66-.912 0-1.648.292-2.208.876-.56.584-.84 1.356-.84 2.316V28h-2.976V10.336h2.976v7.296a4.275 4.275 0 0 1 1.656-1.524c.688-.36 1.456-.54 2.304-.54zm18.144 6.528h-8.352c.064 1.296.388 2.252.972 2.868.584.616 1.452.924 2.604.924 1.328 0 2.56-.432 3.696-1.296l.864 2.064c-.576.464-1.284.836-2.124 1.116-.84.28-1.692.42-2.556.42-1.984 0-3.544-.56-4.68-1.68-1.136-1.12-1.704-2.656-1.704-4.608 0-1.232.248-2.328.744-3.288a5.493 5.493 0 0 1 2.088-2.244c.896-.536 1.912-.804 3.048-.804 1.664 0 2.98.54 3.948 1.62s1.452 2.564 1.452 4.452v.456zm-5.328-4.368c-.8 0-1.452.236-1.956.708s-.828 1.156-.972 2.052h5.64c-.096-.912-.372-1.6-.828-2.064-.456-.464-1.084-.696-1.884-.696zm12.312 10.464c-2.192 0-3.936-.512-5.232-1.536l.84-2.112c1.296.96 2.776 1.44 4.44 1.44.72 0 1.276-.12 1.668-.36.392-.24.588-.576.588-1.008 0-.368-.136-.66-.408-.876-.272-.216-.736-.404-1.392-.564l-2.016-.456c-2.208-.48-3.312-1.608-3.312-3.384 0-.736.208-1.388.624-1.956.416-.568 1-1.012 1.752-1.332.752-.32 1.624-.48 2.616-.48.864 0 1.696.132 2.496.396s1.504.644 2.112 1.14l-.888 2.04c-1.216-.896-2.464-1.344-3.744-1.344-.688 0-1.224.128-1.608.384-.384.256-.576.608-.576 1.056 0 .352.116.632.348.84.232.208.628.384 1.188.528l2.064.456c1.2.272 2.076.692 2.628 1.26.552.568.828 1.308.828 2.22 0 1.12-.448 2.008-1.344 2.664-.896.656-2.12.984-3.672.984zm7.608-5.472v-2.4h7.224v2.4h-7.224zm17.4-7.152c1.04 0 1.964.268 2.772.804.808.536 1.44 1.288 1.896 2.256.456.968.684 2.076.684 3.324 0 1.248-.224 2.344-.672 3.288-.448.944-1.076 1.672-1.884 2.184-.808.512-1.74.768-2.796.768-.88 0-1.664-.188-2.352-.564a3.893 3.893 0 0 1-1.584-1.572v7.128h-2.976V19.312c0-1.28-.064-2.424-.192-3.432h2.808l.24 2.088c.32-.752.84-1.34 1.56-1.764.72-.424 1.552-.636 2.496-.636zm-.816 10.272c1.008 0 1.784-.336 2.328-1.008.544-.672.816-1.632.816-2.88 0-1.264-.272-2.252-.816-2.964-.544-.712-1.312-1.068-2.304-1.068-1.024 0-1.808.344-2.352 1.032-.544.688-.816 1.672-.816 2.952 0 1.264.272 2.236.816 2.916.544.68 1.32 1.02 2.328 1.02zm19.824-9.96V28h-2.928v-1.872a3.937 3.937 0 0 1-1.536 1.536c-.64.352-1.376.528-2.208.528-2.96 0-4.44-1.664-4.44-4.992v-7.32h2.976v7.344c0 .88.18 1.528.54 1.944.36.416.916.624 1.668.624.88 0 1.584-.288 2.112-.864.528-.576.792-1.344.792-2.304V15.88h3.024zm10.176-.312c1.056 0 1.988.26 2.796.78.808.52 1.436 1.252 1.884 2.196.448.944.672 2.04.672 3.288 0 1.248-.228 2.356-.684 3.324-.456.968-1.088 1.716-1.896 2.244-.808.528-1.732.792-2.772.792-.896 0-1.692-.192-2.388-.576a3.762 3.762 0 0 1-1.572-1.608V28h-2.952V10.336h2.976v7.368a3.893 3.893 0 0 1 1.584-1.572c.688-.376 1.472-.564 2.352-.564zm-.792 10.272c.992 0 1.76-.352 2.304-1.056.544-.704.816-1.688.816-2.952 0-1.248-.272-2.212-.816-2.892-.544-.68-1.32-1.02-2.328-1.02-1.008 0-1.784.344-2.328 1.032-.544.688-.816 1.664-.816 2.928 0 1.28.272 2.26.816 2.94.544.68 1.328 1.02 2.352 1.02zm8.76 2.16V10.336h2.976V28h-2.976zm6.264 0V15.88h2.976V28H266.8zm-.192-17.616h3.336v2.952h-3.336v-2.952zm18.264 5.496c-.144.96-.216 2.104-.216 3.432v13.872h-3v-7.032a3.724 3.724 0 0 1-1.572 1.512c-.68.352-1.452.528-2.316.528-1.056 0-1.992-.256-2.808-.768-.816-.512-1.448-1.24-1.896-2.184-.448-.944-.672-2.04-.672-3.288 0-1.248.228-2.356.684-3.324.456-.968 1.092-1.72 1.908-2.256.816-.536 1.744-.804 2.784-.804.928 0 1.752.208 2.472.624.72.416 1.248 1 1.584 1.752l.216-2.064h2.832zm-6.288 9.96c.992 0 1.76-.344 2.304-1.032.544-.688.816-1.656.816-2.904 0-1.28-.272-2.264-.816-2.952-.544-.688-1.32-1.032-2.328-1.032-.992 0-1.764.356-2.316 1.068-.552.712-.828 1.7-.828 2.964 0 1.248.276 2.208.828 2.88.552.672 1.332 1.008 2.34 1.008zm20.376-9.96V28h-2.928v-1.872a3.937 3.937 0 0 1-1.536 1.536c-.64.352-1.376.528-2.208.528-2.96 0-4.44-1.664-4.44-4.992v-7.32h2.976v7.344c0 .88.18 1.528.54 1.944.36.416.916.624 1.668.624.88 0 1.584-.288 2.112-.864.528-.576.792-1.344.792-2.304V15.88h3.024zm13.872 6.216h-8.352c.064 1.296.388 2.252.972 2.868.584.616 1.452.924 2.604.924 1.328 0 2.56-.432 3.696-1.296l.864 2.064c-.576.464-1.284.836-2.124 1.116-.84.28-1.692.42-2.556.42-1.984 0-3.544-.56-4.68-1.68-1.136-1.12-1.704-2.656-1.704-4.608 0-1.232.248-2.328.744-3.288a5.493 5.493 0 0 1 2.088-2.244c.896-.536 1.912-.804 3.048-.804 1.664 0 2.98.54 3.948 1.62s1.452 2.564 1.452 4.452v.456zm-5.328-4.368c-.8 0-1.452.236-1.956.708s-.828 1.156-.972 2.052h5.64c-.096-.912-.372-1.6-.828-2.064-.456-.464-1.084-.696-1.884-.696zm12.312 10.464c-2.192 0-3.936-.512-5.232-1.536l.84-2.112c1.296.96 2.776 1.44 4.44 1.44.72 0 1.276-.12 1.668-.36.392-.24.588-.576.588-1.008 0-.368-.136-.66-.408-.876-.272-.216-.736-.404-1.392-.564l-2.016-.456c-2.208-.48-3.312-1.608-3.312-3.384 0-.736.208-1.388.624-1.956.416-.568 1-1.012 1.752-1.332.752-.32 1.624-.48 2.616-.48.864 0 1.696.132 2.496.396s1.504.644 2.112 1.14l-.888 2.04c-1.216-.896-2.464-1.344-3.744-1.344-.688 0-1.224.128-1.608.384-.384.256-.576.608-.576 1.056 0 .352.116.632.348.84.232.208.628.384 1.188.528l2.064.456c1.2.272 2.076.692 2.628 1.26.552.568.828 1.308.828 2.22 0 1.12-.448 2.008-1.344 2.664-.896.656-2.12.984-3.672.984zm7.152-3.552h3.36V28h-3.36v-3.36zm11.592-11.928c-1.296 0-1.944.712-1.944 2.136v1.032h2.712v2.256h-2.712V28h-3v-9.864h-2.304V15.88h2.304v-1.176c0-1.44.364-2.548 1.092-3.324.728-.776 1.772-1.164 3.132-1.164.752 0 1.384.096 1.896.288v2.376a4.936 4.936 0 0 0-1.176-.168zm9.6 2.88c.464 0 .864.064 1.2.192l-.024 2.736a4.171 4.171 0 0 0-1.584-.312c-1.024 0-1.804.296-2.34.888-.536.592-.804 1.376-.804 2.352V28h-2.976v-8.688c0-1.28-.064-2.424-.192-3.432h2.808l.24 2.136c.304-.784.784-1.384 1.44-1.8.656-.416 1.4-.624 2.232-.624z" fill="#4393F3"/><g stroke-width="4"><path d="M25.953 21.516c-.367-.416-.723-.824-1.062-1.219l-1.104-1.286 1.089-1.3c.363-.434.747-.884 1.148-1.345a90.567 90.567 0 0 1 5.306-5.615c2.17-2.099 4.227-3.834 6.137-5.16 1.893-1.316 3.63-2.22 5.183-2.673l.115-.034.118-.02h.005C45.253 2.2 46.432 2 48.088 2c9.366 0 16.914 7.593 16.914 17 0 9.38-7.638 17-17.033 17-1.962 0-3.908-.334-5.7-.968a11.891 11.891 0 0 1-1.571-.645 16.811 16.811 0 0 1-2.862-1.712 38.044 38.044 0 0 1-1.58-1.166c-1.543-1.2-3.192-2.655-4.93-4.341a103.248 103.248 0 0 1-5.373-5.652z" stroke="#FF5D60"/><path d="M23.888 2.864h.005l.118.02.115.034c1.596.465 3.392 1.407 5.357 2.781 1.878 1.313 3.898 3.01 6.03 5.052a92.302 92.302 0 0 1 5.362 5.615c.434.492.848.972 1.238 1.433l1.101 1.302-1.112 1.294c-.314.364-.64.739-.978 1.12a103.216 103.216 0 0 1-5.373 5.653c-1.738 1.687-3.388 3.142-4.932 4.343-.523.406-1.032.782-1.476 1.091a17.095 17.095 0 0 1-2.91 1.759c-.585.287-1.117.507-1.623.67a17.387 17.387 0 0 1-5.738.969C9.668 36 2 28.37 2 19 2 9.576 9.49 2 18.839 2c1.616 0 2.559.167 5.049.864z" stroke="#4393F3"/></g></g></svg>